# xmcd CD database file
#
# Track frame offsets:
#	150
#	14398
#	35275
#	60275
#	79812
#	96187
#	113553
#	127992
#	148235
#	165662
#	190444
#
# Disc length: 2801 seconds
#
# Revision: 0
# Processed by: cddbd v1.5.2PL0 Copyright (c) Steve Scherf et al.
# Submitted via: CDex 1.51
#
DISCID=8a0aef0b
DTITLE=Curtis Salgado - Soul Shot
DYEAR=2012
DGENRE=Blues
TTITLE0=What You Gonna Do?
TTITLE1=Love Comfort Zone
TTITLE2=Gettin' To Know You
TTITLE3=She Didn't Cut Me Loose
TTITLE4=Nobody But You
TTITLE5=Let Me Make Love To You
TTITLE6=Love Man
TTITLE7=He Played His Harmonica
TTITLE8=Baby, Let Me Take You
TTITLE9=Strung Out
TTITLE10=A Woman Or The Blues 
EXTD=YEAR: 2012
EXTT0=
EXTT1=
EXTT2=
EXTT3=
EXTT4=
EXTT5=
EXTT6=
EXTT7=
EXTT8=
EXTT9=
EXTT10=
PLAYORDER=
